Coordinates
version=1
nRows=14
nColumns=42
inDegrees=yes

Units are S.I. units (second, meters, Newtons, ...)
If the header above contains a line with 'inDegrees', this indicates whether rotational values are in degrees (yes) or radians (no).

endheader
time	pelvis_tilt	pelvis_list	pelvis_rotation	pelvis_tx	pelvis_ty	pelvis_tz	hip_flexion_r	hip_adduction_r	hip_rotation_r	knee_angle_r	knee_adduction_r	knee_angle_r_beta	ankle_angle_r	subtalar_angle_r	mtp_angle_r	hip_flexion_l	hip_adduction_l	hip_rotation_l	knee_angle_l	knee_adduction_l	knee_angle_l_beta	ankle_angle_l	subtalar_angle_l	mtp_angle_l	lumbar_extension	lumbar_bending	lumbar_rotation	arm_flex_r	arm_add_r	arm_rot_r	elbow_flex_r	pro_sup_r	wrist_flex_r	wrist_dev_r	arm_flex_l	arm_add_l	arm_rot_l	elbow_flex_l	pro_sup_l	wrist_flex_l	wrist_dev_l
      2.74000000	      9.32226148	     -9.41874622	      2.18136090	     -0.83651514	      0.83996831	     -0.14424231	      3.67892863	      6.24976304	    -24.29384938	     22.41141783	     -4.68754739	      0.39115303	     11.24018763	     19.45394280	     -7.54847702	    -11.17002446	    -15.64504245	    -21.45565956	     25.81306403	     -7.63795117	      0.45052296	     25.86071858	     25.21815561	     -7.54847702	    -27.23897424	      9.91025010	      0.20795417	    -10.17513500	     -2.36281595	     -8.64470390	    107.17331304	     90.00000001	      0.00000000	      0.00000000	     -1.63494005	    -10.16296633	    -15.35660196	     48.62753919	     90.00000001	      0.00000000	      0.00000000
      2.75000000	      9.04703797	     -9.51038226	      2.01967886	     -0.83355368	      0.83961666	     -0.14184338	      3.71176726	      6.39698653	    -24.35964498	     22.40194768	     -4.57640170	      0.39098775	     11.38576503	     19.76656769	     -7.54815851	    -10.94998516	    -15.83927027	    -21.51650779	     26.11273232	     -7.85698896	      0.45575316	     25.73993105	     25.14586165	     -7.54815851	    -27.18222362	      9.98838044	      0.22018509	    -10.00627479	     -2.28755381	     -8.63419551	    107.14781986	     90.00000001	      0.00000000	      0.00000000	     -1.41309574	    -10.13007787	    -15.29830754	     48.66594879	     90.00000001	      0.00000000	      0.00000000
      2.76000000	      8.58628635	     -9.63959381	      1.78002215	     -0.83070996	      0.83908692	     -0.13925566	      4.00029458	      6.63932828	    -24.60209039	     22.39632209	     -4.65561457	      0.39088956	     11.77070790	     20.83857866	     -7.54717429	    -10.42976169	    -16.14226411	    -21.76164607	     26.62791017	     -8.09432276	      0.46474471	     25.46524116	     24.97596986	     -7.54717429	    -26.92185038	     10.07785894	      0.25703805	     -9.92627141	     -2.22160812	     -8.72115580	    106.99807719	     90.00000001	      0.00000000	      0.00000000	     -1.28046311	    -10.14613030	    -15.18089974	     48.56353015	     90.00000001	      0.00000000	      0.00000000
      2.77000000	      8.35196523	     -9.66818270	      1.58898486	     -0.82794379	      0.83889884	     -0.13691748	      3.98966283	      6.71022702	    -24.75707708	     22.37376294	     -4.52198149	      0.39049583	     11.88178267	     21.15768508	     -7.54689653	    -10.21010443	    -16.25598849	    -21.76481436	     26.99611765	     -8.32819243	      0.47117114	     25.30430920	     24.93403108	     -7.54689653	    -26.94502972	     10.08222884	      0.27488721	     -9.77330912	     -2.15233894	     -8.68429065	    106.98113240	     90.00000001	      0.00000000	      0.00000000	     -0.98536707	    -10.13821870	    -15.11973565	     48.62885421	     90.00000001	      0.00000000	      0.00000000
      2.78000000	      7.97429346	     -9.72812262	      1.37657756	     -0.82526793	      0.83854923	     -0.13448298	      4.16992594	      6.86667458	    -24.99530368	     22.33765552	     -4.52917342	      0.38986564	     12.09710566	     21.83689228	     -7.54641580	     -9.73486812	    -16.49963776	    -21.93500903	     27.56652038	     -8.55004876	      0.48112654	     24.94926052	     24.83075559	     -7.54641580	    -26.80277539	     10.11677576	      0.26167135	     -9.73032696	     -2.13052106	     -8.69113737	    106.90994961	     90.00000001	      0.00000000	      0.00000000	     -0.79100874	    -10.13573823	    -15.03274721	     48.63190583	     90.00000001	      0.00000000	      0.00000000
      2.79000000	      7.53926460	     -9.76404208	      1.12072999	     -0.82266482	      0.83821553	     -0.13211196	      4.46608940	      6.96580676	    -25.44214883	     22.37864993	     -4.61522924	      0.39058112	     12.38158582	     23.02269324	     -7.54554626	     -9.21835810	    -16.68160511	    -22.06162058	     28.09248851	     -8.78031375	      0.49030642	     24.49799798	     24.71804698	     -7.54554626	    -26.61955037	     10.12506394	      0.24548376	     -9.70760121	     -2.11712506	     -8.68831321	    106.80562739	     90.00000001	      0.00000000	      0.00000000	     -0.59884402	    -10.15154700	    -14.89365400	     48.59663655	     90.00000001	      0.00000000	      0.00000000
      2.80000000	      7.32816846	     -9.70998438	      0.89024107	     -0.82007172	      0.83816201	     -0.12983195	      4.44093020	      6.97082782	    -25.66052003	     22.34096106	     -4.54464449	      0.38992333	     12.47768707	     23.39922957	     -7.54525048	     -8.98821102	    -16.71549805	    -22.02438427	     28.53467669	     -8.99740189	      0.49802406	     24.27130213	     24.69339376	     -7.54525048	    -26.65604071	     10.03854288	      0.26063586	     -9.63114801	     -2.09681043	     -8.64226780	    106.78684548	     90.00000001	      0.00000000	      0.00000000	     -0.30172969	    -10.16569939	    -14.83356532	     48.68407125	     90.00000001	      0.00000000	      0.00000000
      2.81000000	      6.97541251	     -9.66605420	      0.66758382	     -0.81748922	      0.83793389	     -0.12755835	      4.69665183	      6.89333504	    -26.80746974	     22.48584072	     -4.77210646	      0.39245196	     12.95479453	     26.15453012	     -7.54198277	     -8.53016906	    -16.80040452	    -21.99552195	     29.08535634	     -9.21165425	      0.50763523	     23.66031690	     24.41338849	     -7.54198277	    -26.53234362	      9.97161854	      0.21302484	     -9.65811329	     -2.11653994	     -8.56810741	    106.72557541	     90.00000001	      0.00000000	      0.00000000	     -0.15301399	    -10.24532519	    -14.49730978	     48.70736448	     90.00000001	      0.00000000	      0.00000000
      2.82000000	      6.65054186	     -9.64469173	      0.41460257	     -0.81511212	      0.83785435	     -0.12530545	      4.82104028	      6.97911586	    -26.96650835	     22.42391185	     -4.72544644	      0.39137109	     13.02203154	     26.39262128	     -7.54140003	     -8.07054606	    -16.93823878	    -22.02369942	     29.68878425	     -9.39910726	      0.51816704	     23.20253482	     24.37938991	     -7.54140003	    -26.48699128	      9.94552621	      0.21876187	     -9.69043251	     -2.15886338	     -8.54026108	    106.73196802	     90.00000001	      0.00000000	      0.00000000	      0.05628211	    -10.25363278	    -14.45361892	     48.84245809	     90.00000001	      0.00000000	      0.00000000
      2.83000000	      6.31934506	     -9.59903786	      0.14019703	     -0.81268275	      0.83776598	     -0.12310908	      4.95934845	      7.02967518	    -27.18199449	     22.39879256	     -4.73159747	      0.39093268	     13.11635520	     26.80448915	     -7.54071711	     -7.60668845	    -17.02674379	    -21.99360324	     30.32315549	     -9.59280470	      0.52923890	     22.62631337	     24.29739717	     -7.54071711	    -26.36843074	      9.89468224	      0.21895190	     -9.72381861	     -2.21533343	     -8.48770317	    106.73902362	     90.00000001	      0.00000000	      0.00000000	      0.27943162	    -10.25019864	    -14.40340752	     49.01688583	     90.00000001	      0.00000000	      0.00000000
      2.84000000	      6.16121508	     -9.46050629	     -0.10962277	     -0.81037436	      0.83792275	     -0.12095954	      4.89346851	      6.99635282	    -27.28441587	     22.33137961	     -4.70838929	      0.38975610	     13.15847175	     26.94831324	     -7.54052334	     -7.34894424	    -16.98867353	    -21.89393223	     30.87485397	     -9.77094134	      0.53886786	     22.35083805	     24.28762455	     -7.54052334	    -26.51399595	      9.69027690	      0.22878328	     -9.69643251	     -2.26001730	     -8.45828017	    106.73763450	     90.00000001	      0.00000000	      0.00000000	      0.58599389	    -10.24942239	    -14.37398018	     49.16401265	     90.00000001	      0.00000000	      0.00000000
      2.85000000	      5.77513899	     -9.44014102	     -0.36050400	     -0.80808821	      0.83780856	     -0.11883142	      5.10646206	      7.08683884	    -27.52740127	     22.29935384	     -4.70612381	      0.38919715	     13.28571073	     27.45294434	     -7.53999319	     -6.73157474	    -17.15374609	    -21.80877150	     31.64252793	     -9.92307650	      0.55226630	     21.53928573	     24.13484145	     -7.53999319	    -26.36388411	      9.68150833	      0.23973679	     -9.80705921	     -2.35671144	     -8.42630902	    106.78732601	     90.00000001	      0.00000000	      0.00000000	      0.76611963	    -10.22541084	    -14.34318735	     49.40854467	     90.00000001	      0.00000000	      0.00000000
      2.86000000	      5.47888864	     -9.32980489	     -0.62501128	     -0.80581165	      0.83780219	     -0.11677160	      5.24025091	      7.08397781	    -27.79462792	     22.30007710	     -4.79159920	      0.38920977	     13.42040082	     28.09290533	     -7.53922385	     -6.24454492	    -17.18205882	    -21.62153397	     32.34276337	    -10.03801427	      0.56448771	     20.76314404	     23.83345300	     -7.53922385	    -26.30278432	      9.56434718	      0.21565142	     -9.88220967	     -2.44873627	     -8.39993582	    106.84795999	     90.00000001	      0.00000000	      0.00000000	      0.94242304	    -10.19902593	    -14.31859953	     49.73193737	     90.00000001	      0.00000000	      0.00000000
      2.87000000	      5.36864445	     -9.16639915	     -0.87179644	     -0.80356830	      0.83802272	     -0.11480325	      5.13065834	      7.01791847	    -27.86917499	     22.23758810	     -4.76050893	      0.38811913	     13.46819006	     28.24872950	     -7.53903538	     -5.98276359	    -17.12797773	    -21.47383989	     32.99528657	    -10.16900294	      0.57587639	     20.43426327	     23.79163307	     -7.53903538	    -26.46593856	      9.38566590	      0.22007039	     -9.90863650	     -2.53377000	     -8.41072187	    106.85080932	     90.00000001	      0.00000000	      0.00000000	      1.21068545	    -10.19637831	    -14.30311151	     49.90720428	     90.00000001	      0.00000000	      0.00000000
